<mxfile host="app.diagrams.net" modified="2021-01-28T14:19:05.117Z" agent="5.0 (Windows NT 10.0; Win64; x64) AppleWebKit/537.36 (KHTML, like Gecko) Chrome/87.0.4280.141 Safari/537.36" etag="35bI3OjyCcirVAPrJ2e0" version="14.1.9" type="github">
  <diagram id="QbJb6NR9S4TFO1TL-0sL" name="Page-1">
    <mxGraphModel dx="1422" dy="804" grid="0" gridSize="10" guides="1" tooltips="1" connect="1" arrows="1" fold="1" page="1" pageScale="1" pageWidth="827" pageHeight="1169" math="0" shadow="0">
      <root>
        <mxCell id="0" />
        <mxCell id="1" parent="0" />
        <mxCell id="sOJlW5TzaMHGNiDIn5mB-4" style="rounded=0;orthogonalLoop=1;jettySize=auto;html=1;exitX=0.25;exitY=1;exitDx=0;exitDy=0;entryX=0.5;entryY=0;entryDx=0;entryDy=0;strokeWidth=3;" edge="1" parent="1" source="sOJlW5TzaMHGNiDIn5mB-1" target="sOJlW5TzaMHGNiDIn5mB-2">
          <mxGeometry relative="1" as="geometry" />
        </mxCell>
        <mxCell id="sOJlW5TzaMHGNiDIn5mB-5" style="edgeStyle=none;rounded=0;orthogonalLoop=1;jettySize=auto;html=1;exitX=0.75;exitY=1;exitDx=0;exitDy=0;entryX=0.5;entryY=0;entryDx=0;entryDy=0;strokeWidth=3;" edge="1" parent="1" source="sOJlW5TzaMHGNiDIn5mB-1" target="sOJlW5TzaMHGNiDIn5mB-3">
          <mxGeometry relative="1" as="geometry" />
        </mxCell>
        <mxCell id="sOJlW5TzaMHGNiDIn5mB-1" value="&lt;font style=&quot;font-size: 22px&quot;&gt;&lt;b&gt;Throwable&lt;/b&gt;&lt;/font&gt;" style="rounded=1;whiteSpace=wrap;html=1;strokeWidth=2;fillWeight=4;hachureGap=8;hachureAngle=45;sketch=1;strokeColor=#9673a6;fillColor=#e1d5e7;shadow=0;disableMultiStrokeFill=0;disableMultiStroke=0;" vertex="1" parent="1">
          <mxGeometry x="665" y="337" width="120" height="60" as="geometry" />
        </mxCell>
        <mxCell id="sOJlW5TzaMHGNiDIn5mB-17" style="edgeStyle=none;rounded=0;orthogonalLoop=1;jettySize=auto;html=1;exitX=0;exitY=0.5;exitDx=0;exitDy=0;entryX=1;entryY=0.5;entryDx=0;entryDy=0;strokeWidth=3;" edge="1" parent="1" source="sOJlW5TzaMHGNiDIn5mB-2" target="sOJlW5TzaMHGNiDIn5mB-6">
          <mxGeometry relative="1" as="geometry" />
        </mxCell>
        <mxCell id="sOJlW5TzaMHGNiDIn5mB-18" style="edgeStyle=none;rounded=0;orthogonalLoop=1;jettySize=auto;html=1;exitX=0;exitY=0.5;exitDx=0;exitDy=0;entryX=1;entryY=0.5;entryDx=0;entryDy=0;strokeWidth=3;" edge="1" parent="1" source="sOJlW5TzaMHGNiDIn5mB-2" target="sOJlW5TzaMHGNiDIn5mB-8">
          <mxGeometry relative="1" as="geometry" />
        </mxCell>
        <mxCell id="sOJlW5TzaMHGNiDIn5mB-19" style="edgeStyle=none;rounded=0;orthogonalLoop=1;jettySize=auto;html=1;exitX=0;exitY=0.5;exitDx=0;exitDy=0;entryX=1;entryY=0.5;entryDx=0;entryDy=0;strokeWidth=3;" edge="1" parent="1" source="sOJlW5TzaMHGNiDIn5mB-2" target="sOJlW5TzaMHGNiDIn5mB-9">
          <mxGeometry relative="1" as="geometry" />
        </mxCell>
        <mxCell id="sOJlW5TzaMHGNiDIn5mB-2" value="&lt;font style=&quot;font-size: 22px&quot;&gt;&lt;b&gt;Error&lt;/b&gt;&lt;/font&gt;" style="rounded=1;whiteSpace=wrap;html=1;strokeWidth=2;fillWeight=4;hachureGap=8;hachureAngle=45;sketch=1;strokeColor=#82b366;fillColor=#d5e8d4;shadow=0;disableMultiStrokeFill=0;disableMultiStroke=0;" vertex="1" parent="1">
          <mxGeometry x="495" y="467" width="120" height="60" as="geometry" />
        </mxCell>
        <mxCell id="sOJlW5TzaMHGNiDIn5mB-20" style="edgeStyle=none;rounded=0;orthogonalLoop=1;jettySize=auto;html=1;exitX=0.5;exitY=1;exitDx=0;exitDy=0;entryX=0.25;entryY=0;entryDx=0;entryDy=0;strokeWidth=3;" edge="1" parent="1" source="sOJlW5TzaMHGNiDIn5mB-3" target="sOJlW5TzaMHGNiDIn5mB-10">
          <mxGeometry relative="1" as="geometry" />
        </mxCell>
        <mxCell id="sOJlW5TzaMHGNiDIn5mB-21" style="edgeStyle=none;rounded=0;orthogonalLoop=1;jettySize=auto;html=1;exitX=0.5;exitY=1;exitDx=0;exitDy=0;entryX=0.25;entryY=0;entryDx=0;entryDy=0;strokeWidth=3;" edge="1" parent="1" source="sOJlW5TzaMHGNiDIn5mB-3" target="sOJlW5TzaMHGNiDIn5mB-15">
          <mxGeometry relative="1" as="geometry" />
        </mxCell>
        <mxCell id="sOJlW5TzaMHGNiDIn5mB-3" value="&lt;span style=&quot;font-size: 22px&quot;&gt;&lt;b&gt;Exception&lt;/b&gt;&lt;/span&gt;" style="rounded=1;whiteSpace=wrap;html=1;strokeWidth=2;fillWeight=4;hachureGap=8;hachureAngle=45;sketch=1;strokeColor=#82b366;fillColor=#d5e8d4;shadow=0;disableMultiStrokeFill=0;disableMultiStroke=0;" vertex="1" parent="1">
          <mxGeometry x="815" y="467" width="120" height="60" as="geometry" />
        </mxCell>
        <mxCell id="sOJlW5TzaMHGNiDIn5mB-6" value="&lt;font style=&quot;font-size: 18px&quot;&gt;&lt;b&gt;虚拟机错误&lt;br&gt;VirtualMachineError&lt;/b&gt;&lt;/font&gt;" style="ellipse;shape=doubleEllipse;whiteSpace=wrap;html=1;shadow=0;disableMultiStroke=0;disableMultiStrokeFill=0;fillColor=#dae8fc;strokeColor=#6c8ebf;" vertex="1" parent="1">
          <mxGeometry x="195" y="367" width="220" height="80" as="geometry" />
        </mxCell>
        <mxCell id="sOJlW5TzaMHGNiDIn5mB-8" value="&lt;b class=&quot;cs_cursor&quot; style=&quot;font-size: 20px&quot;&gt;&lt;span style=&quot;font-size: 18px&quot;&gt;内存溢出&lt;/span&gt;&lt;font style=&quot;font-size: 20px&quot;&gt;&lt;br&gt;&lt;/font&gt;&lt;/b&gt;&lt;b&gt;&lt;font style=&quot;font-size: 18px&quot;&gt;OutOfMemoryError&lt;/font&gt;&lt;/b&gt;" style="ellipse;shape=doubleEllipse;whiteSpace=wrap;html=1;shadow=0;disableMultiStroke=0;disableMultiStrokeFill=0;fillColor=#dae8fc;strokeColor=#6c8ebf;" vertex="1" parent="1">
          <mxGeometry x="195" y="457" width="220" height="80" as="geometry" />
        </mxCell>
        <mxCell id="sOJlW5TzaMHGNiDIn5mB-9" value="&lt;span style=&quot;font-size: 18px&quot;&gt;&lt;b class=&quot;cs_cursor&quot;&gt;死锁&lt;br&gt;ThreadDeath&lt;br&gt;&lt;/b&gt;&lt;/span&gt;" style="ellipse;shape=doubleEllipse;whiteSpace=wrap;html=1;shadow=0;disableMultiStroke=0;disableMultiStrokeFill=0;fillColor=#dae8fc;strokeColor=#6c8ebf;" vertex="1" parent="1">
          <mxGeometry x="195" y="567" width="220" height="80" as="geometry" />
        </mxCell>
        <mxCell id="sOJlW5TzaMHGNiDIn5mB-10" value="&lt;font style=&quot;font-size: 20px&quot;&gt;&lt;b&gt;RuntimeException&lt;/b&gt;&lt;/font&gt;" style="shape=ext;double=1;rounded=1;whiteSpace=wrap;html=1;shadow=0;disableMultiStroke=0;disableMultiStrokeFill=0;fillColor=#76608a;strokeColor=#432D57;fontColor=#ffffff;" vertex="1" parent="1">
          <mxGeometry x="665" y="567" width="200" height="50" as="geometry" />
        </mxCell>
        <mxCell id="sOJlW5TzaMHGNiDIn5mB-25" style="edgeStyle=none;rounded=0;orthogonalLoop=1;jettySize=auto;html=1;exitX=1;exitY=1;exitDx=0;exitDy=0;entryX=0.5;entryY=0;entryDx=0;entryDy=0;strokeWidth=3;" edge="1" parent="1" source="sOJlW5TzaMHGNiDIn5mB-14" target="sOJlW5TzaMHGNiDIn5mB-22">
          <mxGeometry relative="1" as="geometry" />
        </mxCell>
        <mxCell id="sOJlW5TzaMHGNiDIn5mB-26" style="edgeStyle=none;rounded=0;orthogonalLoop=1;jettySize=auto;html=1;exitX=1;exitY=1;exitDx=0;exitDy=0;entryX=0.5;entryY=0;entryDx=0;entryDy=0;strokeWidth=3;" edge="1" parent="1" source="sOJlW5TzaMHGNiDIn5mB-14" target="sOJlW5TzaMHGNiDIn5mB-23">
          <mxGeometry relative="1" as="geometry" />
        </mxCell>
        <mxCell id="sOJlW5TzaMHGNiDIn5mB-27" style="edgeStyle=none;rounded=0;orthogonalLoop=1;jettySize=auto;html=1;exitX=1;exitY=1;exitDx=0;exitDy=0;entryX=0.5;entryY=0;entryDx=0;entryDy=0;strokeWidth=3;" edge="1" parent="1" source="sOJlW5TzaMHGNiDIn5mB-14" target="sOJlW5TzaMHGNiDIn5mB-24">
          <mxGeometry relative="1" as="geometry" />
        </mxCell>
        <mxCell id="sOJlW5TzaMHGNiDIn5mB-14" value="&lt;font style=&quot;font-size: 20px&quot; class=&quot;cs_cursor&quot;&gt;&lt;b&gt;非受检异常&lt;/b&gt;&lt;/font&gt;" style="shape=ext;double=1;rounded=0;whiteSpace=wrap;html=1;shadow=0;disableMultiStroke=0;disableMultiStrokeFill=0;dashed=1;dashPattern=1 4;fillColor=#808080;" vertex="1" parent="1">
          <mxGeometry x="545" y="567" width="130" height="50" as="geometry" />
        </mxCell>
        <mxCell id="sOJlW5TzaMHGNiDIn5mB-31" style="edgeStyle=none;rounded=0;orthogonalLoop=1;jettySize=auto;html=1;exitX=0.25;exitY=1;exitDx=0;exitDy=0;entryX=0.5;entryY=0;entryDx=0;entryDy=0;strokeWidth=3;" edge="1" parent="1" source="sOJlW5TzaMHGNiDIn5mB-15" target="sOJlW5TzaMHGNiDIn5mB-28">
          <mxGeometry relative="1" as="geometry" />
        </mxCell>
        <mxCell id="sOJlW5TzaMHGNiDIn5mB-32" style="edgeStyle=none;rounded=0;orthogonalLoop=1;jettySize=auto;html=1;exitX=0.25;exitY=1;exitDx=0;exitDy=0;entryX=0.5;entryY=0;entryDx=0;entryDy=0;strokeWidth=3;" edge="1" parent="1" source="sOJlW5TzaMHGNiDIn5mB-15" target="sOJlW5TzaMHGNiDIn5mB-29">
          <mxGeometry relative="1" as="geometry" />
        </mxCell>
        <mxCell id="sOJlW5TzaMHGNiDIn5mB-33" style="edgeStyle=none;rounded=0;orthogonalLoop=1;jettySize=auto;html=1;exitX=0.25;exitY=1;exitDx=0;exitDy=0;entryX=0.5;entryY=0;entryDx=0;entryDy=0;strokeWidth=3;" edge="1" parent="1" source="sOJlW5TzaMHGNiDIn5mB-15" target="sOJlW5TzaMHGNiDIn5mB-30">
          <mxGeometry relative="1" as="geometry" />
        </mxCell>
        <mxCell id="sOJlW5TzaMHGNiDIn5mB-15" value="&lt;span style=&quot;font-size: 20px&quot;&gt;&lt;b&gt;CheckException&lt;/b&gt;&lt;/span&gt;" style="shape=ext;double=1;rounded=1;whiteSpace=wrap;html=1;shadow=0;disableMultiStroke=0;disableMultiStrokeFill=0;fillColor=#76608a;strokeColor=#432D57;fontColor=#ffffff;" vertex="1" parent="1">
          <mxGeometry x="1035" y="567" width="180" height="50" as="geometry" />
        </mxCell>
        <mxCell id="sOJlW5TzaMHGNiDIn5mB-16" value="&lt;font style=&quot;font-size: 20px&quot; class=&quot;cs_cursor&quot;&gt;&lt;b&gt;受检异常&lt;/b&gt;&lt;/font&gt;" style="shape=ext;double=1;rounded=0;whiteSpace=wrap;html=1;shadow=0;disableMultiStroke=0;disableMultiStrokeFill=0;dashed=1;dashPattern=1 4;fillColor=#808080;" vertex="1" parent="1">
          <mxGeometry x="915" y="567" width="130" height="50" as="geometry" />
        </mxCell>
        <mxCell id="sOJlW5TzaMHGNiDIn5mB-22" value="&lt;span style=&quot;font-size: 18px&quot;&gt;&lt;b class=&quot;cs_cursor&quot;&gt;空指针异常&lt;br&gt;NullPointException&lt;br&gt;&lt;/b&gt;&lt;/span&gt;" style="ellipse;shape=doubleEllipse;whiteSpace=wrap;html=1;shadow=0;disableMultiStroke=0;disableMultiStrokeFill=0;fillColor=#ffe6cc;strokeColor=#d79b00;" vertex="1" parent="1">
          <mxGeometry x="205" y="697" width="220" height="80" as="geometry" />
        </mxCell>
        <mxCell id="sOJlW5TzaMHGNiDIn5mB-23" value="&lt;span style=&quot;font-size: 18px&quot;&gt;&lt;b class=&quot;cs_cursor&quot;&gt;算术异常&lt;br&gt;ArithmeticException&lt;br&gt;&lt;/b&gt;&lt;/span&gt;" style="ellipse;shape=doubleEllipse;whiteSpace=wrap;html=1;shadow=0;disableMultiStroke=0;disableMultiStrokeFill=0;fillColor=#ffe6cc;strokeColor=#d79b00;" vertex="1" parent="1">
          <mxGeometry x="425" y="697" width="220" height="80" as="geometry" />
        </mxCell>
        <mxCell id="sOJlW5TzaMHGNiDIn5mB-24" value="&lt;span style=&quot;font-size: 18px&quot;&gt;&lt;b class=&quot;cs_cursor&quot;&gt;。。。&lt;br&gt;&lt;/b&gt;&lt;/span&gt;" style="ellipse;shape=doubleEllipse;whiteSpace=wrap;html=1;shadow=0;disableMultiStroke=0;disableMultiStrokeFill=0;fillColor=#ffe6cc;strokeColor=#d79b00;" vertex="1" parent="1">
          <mxGeometry x="645" y="697" width="220" height="80" as="geometry" />
        </mxCell>
        <mxCell id="sOJlW5TzaMHGNiDIn5mB-28" value="&lt;b class=&quot;cs_cursor&quot; style=&quot;font-size: 18px&quot;&gt;IO异常&lt;br&gt;IOException&lt;/b&gt;&lt;span style=&quot;font-size: 18px&quot;&gt;&lt;b class=&quot;cs_cursor&quot;&gt;&lt;br&gt;&lt;/b&gt;&lt;/span&gt;" style="ellipse;shape=doubleEllipse;whiteSpace=wrap;html=1;shadow=0;disableMultiStroke=0;disableMultiStrokeFill=0;fillColor=#f8cecc;strokeColor=#b85450;" vertex="1" parent="1">
          <mxGeometry x="885" y="697" width="220" height="80" as="geometry" />
        </mxCell>
        <mxCell id="sOJlW5TzaMHGNiDIn5mB-29" value="&lt;span style=&quot;font-size: 18px&quot;&gt;&lt;b class=&quot;cs_cursor&quot;&gt;SQL异常&lt;br&gt;SQLException&lt;br&gt;&lt;/b&gt;&lt;/span&gt;" style="ellipse;shape=doubleEllipse;whiteSpace=wrap;html=1;shadow=0;disableMultiStroke=0;disableMultiStrokeFill=0;fillColor=#f8cecc;strokeColor=#b85450;" vertex="1" parent="1">
          <mxGeometry x="1105" y="697" width="220" height="80" as="geometry" />
        </mxCell>
        <mxCell id="sOJlW5TzaMHGNiDIn5mB-30" value="&lt;span style=&quot;font-size: 18px&quot;&gt;&lt;b class=&quot;cs_cursor&quot;&gt;。。。&lt;br&gt;&lt;/b&gt;&lt;/span&gt;" style="ellipse;shape=doubleEllipse;whiteSpace=wrap;html=1;shadow=0;disableMultiStroke=0;disableMultiStrokeFill=0;fillColor=#f8cecc;strokeColor=#b85450;" vertex="1" parent="1">
          <mxGeometry x="1325" y="697" width="220" height="80" as="geometry" />
        </mxCell>
      </root>
    </mxGraphModel>
  </diagram>
</mxfile>
